<svg width="32" height="21" viewBox="0 0 32 21" fill="none" xmlns="http://www.w3.org/2000/svg">
<path fill-rule="evenodd" clip-rule="evenodd" d="M0.25 10.5006C0.25 10.2022 0.368556 9.91597 0.579588 9.70494C0.79062 9.4939 1.07684 9.37535 1.37529 9.37535L27.9163 9.37535L20.8337 2.29505C20.6224 2.08375 20.5037 1.79717 20.5037 1.49835C20.5037 1.19953 20.6224 0.912945 20.8337 0.701647C21.045 0.490349 21.3316 0.371643 21.6304 0.371643C21.9292 0.371643 22.2158 0.490349 22.4271 0.701647L31.4294 9.70393C31.5342 9.80846 31.6173 9.93264 31.6741 10.0693C31.7308 10.2061 31.76 10.3526 31.76 10.5006C31.76 10.6486 31.7308 10.7952 31.6741 10.9319C31.6173 11.0686 31.5342 11.1928 31.4294 11.2973L22.4271 20.2996C22.2158 20.5109 21.9292 20.6296 21.6304 20.6296C21.3316 20.6296 21.045 20.5109 20.8337 20.2996C20.6224 20.0883 20.5037 19.8017 20.5037 19.5029C20.5037 19.2041 20.6224 18.9175 20.8337 18.7062L27.9163 11.6259L1.37529 11.6259C1.07684 11.6259 0.79062 11.5074 0.579588 11.2963C0.368556 11.0853 0.25 10.7991 0.25 10.5006Z" fill="#FF0303"/>
</svg>
